<?xml version="1.0" encoding="UTF-8"?> <svg xmlns="http://www.w3.org/2000/svg" xmlns:xlink="http://www.w3.org/1999/xlink" width="89px" height="58px" viewBox="0 0 89 58"><!-- Generator: Sketch 61.2 (89653) - https://sketch.com --><title>assets/icons/logo_fender@2x</title><desc>Created with Sketch.</desc><g id="Page-1" stroke="none" stroke-width="1" fill="none" fill-rule="evenodd"><g id="gp_004_WEBUYGUITARS_desktop_v07" transform="translate(-772.000000, -1497.000000)" fill="#222222"><g id="BRANDS" transform="translate(634.000000, 1480.000000)"><g id="/assets/icons/logo_fender" transform="translate(138.000000, 17.000000)"><path d="M29.6177194,24.1518967 C30.4116922,23.6189781 29.8619445,22.9672172 28.9453765,22.8488429 C28.0292913,22.7304685 26.6850881,22.7898896 26.0740428,23.2633871 C25.0353624,24.0335223 24.7298397,23.3228082 24.7298397,22.552673 C24.7298397,21.4868358 24.7298397,19.5914423 24.7298397,16.6896327 C24.7298397,13.7873552 23.324339,12.5437225 22.4082537,12.1291783 C21.4916858,11.7141662 18.3148295,12.365927 16.9706263,13.1355944 C11.777224,16.097293 3.28485276,24.5074877 2.55169494,25.277155 C1.81853712,26.0472902 0.29140654,27.7054671 0.0466988274,28.9490998 C-0.346184956,30.9488312 1.81853712,33.2133843 3.59037541,33.2133843 C5.3622137,33.2133843 8.78377776,31.1406632 9.76116064,30.2521536 C10.7385435,29.363644 9.57775052,28.2383857 9.08930041,27.7054671 C8.66118258,27.4092973 8.41695752,26.7580043 8.90589029,26.2840389 C11.1053638,23.7967736 18.3148295,17.9332654 18.8645772,17.5187211 C19.4143249,17.1041769 20.4530053,16.3934628 20.3921904,17.6370955 C20.3106212,19.2948045 20.0253702,24.8036575 19.9032576,27.0541742 C16.2982834,29.9559838 10.7385435,33.1544311 10.1887958,33.3911798 C9.63904811,33.6279286 9.76116064,34.1018939 9.88327317,34.2796894 C10.1482525,34.6642891 11.4717013,35.9378663 13.3048372,35.7600708 C15.1374904,35.5827432 17.276149,33.7467708 17.7037842,33.2728055 C18.1314193,32.7988401 18.4977569,32.9766356 18.436942,33.450601 C17.8871943,38.1294297 13.7324724,53.9424673 13.3048372,56.1340307 C12.877202,58.3255941 15.6264232,58.2067518 17.2148514,57.6738332 C18.8032796,57.1409146 20.0813585,56.2837532 20.5751179,54.4758538 C21.1248656,52.4620859 24.5464296,34.8720291 24.4243171,28.4161812 C25.5851101,27.3498761 28.823264,24.6848153 29.6177194,24.1518967" id="Fill-2"></path><path d="M87.6144546,8.5799629 C86.4698392,9.49266486 81.2284049,14.1162525 80.0233462,15.0289545 C78.8182875,15.9416564 77.284836,17.3763143 76.3486786,16.6106828 C75.7156897,16.0935331 75.9869707,14.3599281 76.3486786,13.4472261 C76.7099107,12.5345241 77.6736721,9.97953537 78.0353801,9.24946992 C78.3966121,8.51940447 77.9749368,7.36350756 77.31244,7.24142947 C76.6494674,7.119832 75.685706,7.36350756 75.2640306,8.09309239 C75.0531929,8.42808621 74.4806473,8.51940447 74.5111069,7.84989745 C74.5410906,7.18087105 74.6615013,5.38574632 73.6372965,4.5340834 C72.6130918,3.68242048 71.2224198,4.14429863 70.2938773,5.53810363 C69.1792456,7.21115026 68.5767162,10.1919705 70.3538447,10.6485618 C70.8059797,10.73988 71.0767847,11.1354323 70.7455364,11.7741795 C70.414288,12.4129267 67.7938088,18.0708137 66.6491934,19.8351786 C65.5041021,21.5995435 64.5403407,22.329609 64.0586979,21.9037775 C63.5765793,21.477946 64.148649,19.2877497 67.0404092,16.4285269 C67.4620845,16.0632539 67.4321008,15.515825 67.2212632,15.1505519 C67.0104255,14.7857595 65.9862208,14.6944413 65.2632807,15.0289545 C64.5403407,15.3634677 64.148649,15.6071432 63.6969899,15.9108966 C63.244855,16.2151306 62.9440662,16.2151306 62.7632122,15.9416564 C62.5823582,15.6677017 62.3415369,15.0592337 64.7211947,13.5991028 C65.1124104,13.3559078 65.4741184,13.2343104 66.2575017,13.2948688 C67.0404092,13.3559078 67.2812305,13.0213946 67.4925441,12.7474399 C67.7033818,12.4739657 68.3059112,11.652582 68.5167489,11.1959907 C68.7275865,10.73988 68.5467326,10.3140486 67.8537762,10.2530095 C67.1608198,10.1919705 64.9015727,10.1919705 62.1002396,12.4129267 C60.6848191,13.5385444 59.8110088,15.1202727 59.9314194,16.0022149 C60.0523061,16.8846376 60.1422571,17.7665797 62.0098126,17.8881772 C62.6123419,17.918937 62.5823582,18.5576842 62.3110772,18.9224767 C62.0402722,19.2877497 61.4077591,19.8654578 61.0765108,20.6565623 C60.8352135,21.2650303 59.5459149,23.1615664 59.0281013,24.0329348 C58.3955883,25.0975134 57.3109403,25.28015 57.3709076,23.7594606 C57.4613346,22.9683561 57.4917943,21.173712 57.4313509,20.4436466 C57.9134696,18.9224767 61.2269051,4.68644071 61.5281698,2.49624436 C61.7689912,1.34034746 61.1064945,0.0628530758 60.4435218,0.00181402902 C59.7810251,-0.0592250177 56.9497082,1.40090588 55.9854709,7.30246852 C55.0217095,13.2035505 54.7204448,14.603123 54.7204448,16.1242929 C52.3707707,16.0022149 50.5032152,17.5839432 49.6598645,20.1394126 C48.8165138,22.6944014 47.973163,25.7367413 47.431077,27.379028 C46.888515,29.0217955 46.4063963,29.9950559 45.8043429,29.8734584 C45.2018135,29.7518609 45.5030782,27.1968722 45.7438996,25.9188971 C45.984721,24.6414028 46.346429,22.5728039 46.5872503,21.2953095 C46.8285476,20.0178151 46.2260183,19.7746202 45.6834563,19.8351786 C45.1413702,19.8962177 42.0087887,21.477946 41.1049947,25.4325073 C40.9246166,26.2841702 39.9603793,26.7100016 40.08079,25.5541047 C40.2012006,24.3982078 40.2616439,23.6071033 39.3578499,23.6071033 C38.8723997,23.6071033 37.6711485,24.2766104 36.9482084,26.0409752 C36.2252684,27.8053401 34.4781236,31.3946283 33.2730649,33.7064221 C32.0684821,36.018216 30.6825694,37.5393859 29.9596294,36.9309179 C29.2366893,36.3224499 30.9838341,33.2805907 31.5263961,32.5505252 C32.2488602,32.0030963 33.5743296,30.9687969 33.2130975,30.2387314 C32.8513895,29.508666 30.9238667,29.8129 30.3213374,30.3603289 C29.718808,30.9687969 28.8754573,31.3335893 28.5137493,30.9687969 C28.1525172,30.6035238 28.995868,29.3870685 29.718808,28.595964 C30.441748,27.8053401 31.1042448,26.9531966 32.1888928,27.4400671 C32.6105682,27.683262 33.4539189,27.379028 33.8755943,26.8315991 C34.2972696,26.2841702 35.261507,25.3109098 35.1406203,24.8240393 C35.0202097,24.3371688 34.2373022,23.9113373 32.9718002,24.0329348 C31.7067741,24.1550129 29.4775107,24.3371688 26.4653398,28.7175615 C25.5620217,30.4213679 26.0436645,32.3073303 27.3086906,32.3073303 C27.9716632,32.3073303 28.5137493,33.0979542 28.0321065,33.7669806 C27.5499879,34.4364876 25.9232538,37.2351519 27.6099553,39.1211143 C29.2971326,41.0070766 32.0684821,39.5469457 33.2730649,37.6609834 C34.4781236,35.775021 36.2252684,32.5505252 36.707387,31.6988623 C37.0081758,31.1509528 37.4303271,31.4551868 37.3698838,31.8810182 C37.3094405,32.3073303 37.6387851,34.3874641 37.9724131,35.105514 C38.4240722,36.079255 39.4482769,36.1095342 39.7795253,35.0449556 C40.1112496,34.0106561 41.8579184,28.9915162 42.7017451,28.0485351 C42.9725501,27.7745803 43.2138474,27.8658986 43.1534041,28.2614508 C43.0934367,28.657003 42.9425664,30.9990761 43.5750795,32.0636547 C44.2075925,33.128714 45.1413702,34.0712146 46.4668396,32.8547592 C47.792309,31.6378233 48.1840007,30.2387314 48.4847895,29.508666 C48.6356598,29.1433929 49.0611426,29.0602453 49.1477621,29.4173477 C49.4790105,30.7861603 53.3949754,32.6721227 54.9612661,27.0142356 C55.0217095,26.5273651 55.6242388,26.3452092 55.8046169,26.8926382 C55.9854709,27.4400671 56.5280328,28.1090935 57.4313509,28.0485351 C58.335145,27.987496 60.3231111,26.5273651 61.1664618,24.4587663 C61.3473158,23.9723764 61.8898778,24.1550129 62.1906666,24.3982078 C62.4919312,24.6414028 63.6365466,25.3714682 64.7211947,24.9456368 C65.8053668,24.5198053 67.4925441,23.1207134 68.9384242,20.4436466 C70.3843043,17.7665797 72.5531244,13.2645896 73.0952105,11.9260562 C73.3964752,11.1354323 73.9990045,11.4396663 73.8481342,12.0481342 C73.5773292,12.8993165 72.3118271,17.796859 74.3602366,19.4699056 C76.408646,21.1434328 79.7825249,18.2534502 80.8067296,17.2797092 C81.8304584,16.3064488 87.3131899,11.4396663 88.6986267,10.0400938 C89.4215668,9.31002835 88.7585941,7.66726093 87.6144546,8.5799629 Z M54.2987694,23.6681424 C53.8166507,24.8240393 52.611592,27.2574306 51.6478306,26.8926382 C50.6840692,26.5273651 50.9448797,24.3881148 51.4669766,22.8770379 C51.9252987,21.5510006 53.5153861,19.3483081 54.4796234,19.6525421 C55.2625308,20.2610101 54.7808881,22.5122455 54.2987694,23.6681424 L54.2987694,23.6681424 Z" id="Fill-3"></path><path d="M84.5065084,2 C83.1485994,2 82,3.05782421 82,4.49340509 C82,5.9416482 83.1485994,7 84.5065084,7 C85.8508799,7 87,5.9416482 87,4.49340509 C87,3.05782421 85.8508799,2 84.5065084,2 Z M84.5065084,6.58320144 C83.3771738,6.58320144 82.4961991,5.69684499 82.4961991,4.49340509 C82.4961991,3.30948612 83.3771738,2.41627097 84.5065084,2.41627097 C85.6228262,2.41627097 86.5038009,3.30948612 86.5038009,4.49340509 C86.5038009,5.69684499 85.6228262,6.58320144 84.5065084,6.58320144 L84.5065084,6.58320144 Z" id="Fill-4"></path><path d="M84.2509038,4.11928284 C84.637503,4.08269301 84.9334779,3.92682034 84.9334779,3.56897183 C84.9334779,3.17453348 84.6254519,3 84.0031333,3 L83,3 L83,5 L83.3986503,5 L83.3986503,4.13318697 L83.8580381,4.13318697 L84.5531453,5 L85,5 L84.2509038,4.11928284 Z M83.3986503,3.87632638 L83.3986503,3.25722649 L83.9423958,3.25722649 C84.2205351,3.25722649 84.516992,3.30296378 84.516992,3.55067691 C84.516992,3.85803147 84.2142685,3.87632638 83.8763557,3.87632638 L83.3986503,3.87632638 L83.3986503,3.87632638 Z" id="Fill-5"></path></g></g></g></g></svg> 