<?xml version="1.0" encoding="UTF-8"?> <svg xmlns="http://www.w3.org/2000/svg" xmlns:xlink="http://www.w3.org/1999/xlink" width="85px" height="53px" viewBox="0 0 85 53"><!-- Generator: Sketch 61.2 (89653) - https://sketch.com --><title>assets/icons/logo_gibson@2x</title><desc>Created with Sketch.</desc><defs><polygon id="path-1" points="0.0094972067 0.101452663 84.8588082 0.101452663 84.8588082 53 0.0094972067 53"></polygon></defs><g id="Page-1" stroke="none" stroke-width="1" fill="none" fill-rule="evenodd"><g id="gp_004_WEBUYGUITARS_desktop_v07" transform="translate(-640.000000, -1500.000000)"><g id="BRANDS" transform="translate(634.000000, 1480.000000)"><g id="/assets/icons/logo_gibson" transform="translate(6.000000, 20.000000)"><g id="Group-4"><mask id="mask-2" fill="white"><use xlink:href="#path-1"></use></mask><g id="Clip-2"></g><path d="M19.9322626,12.7894645 C21.4587803,12.7894645 22.6962663,11.5635651 22.6962663,10.0519675 C22.6962663,8.5395858 21.4587803,7.3138432 19.9322626,7.3138432 C18.406378,7.3138432 17.168892,8.5395858 17.168892,10.0519675 C17.168892,11.5635651 18.406378,12.7894645 19.9322626,12.7894645" id="Fill-1" fill="#1A1919" mask="url(#mask-2)"></path><path d="M15.3403631,16.1703314 C15.3403631,16.1703314 15.3403631,12.3007041 15.3403631,10.3144586 C15.3403631,8.32836982 13.3549721,6.51805917 11.8225978,6.97498817 C10.2902235,7.43207396 3.88055866,9.37378698 3.61511173,9.49186095 C3.3496648,9.61024852 0,10.8951065 0,14.5248225 L0.0489106145,38.1425947 C0.0489106145,38.1425947 0.195167598,40.5141095 2.68707635,40.4656568 C2.68707635,40.4656568 3.41946927,40.4656568 4.59205773,39.8362426 C4.59205773,39.8362426 7.47905028,38.2744675 7.66978585,38.1908905 C7.86052142,38.1071568 9.42866853,37.609929 9.47789572,39.7393373 L9.47789572,53 L14.216527,51.4998491 C14.216527,51.4998491 14.216527,40.1208432 14.216527,39.7393373 C14.216527,38.9408876 14.7964898,34.9876834 16.8545345,33.351426 C16.981797,33.2463669 17.9712477,32.6097396 18.8573371,33.7865592 C19.7432682,34.9633787 20.5187151,35.1418225 20.5187151,35.1418225 C20.5187151,35.1418225 21.4744507,35.5590799 22.3261918,34.1254142 C22.3771601,34.0263136 23.8704376,31.5773373 23.9381844,31.4639675 C24.0059311,31.3504408 24.2299069,31.0277367 24.8668529,31.0763462 C24.8668529,31.0763462 26.4296182,30.9797544 26.1858566,33.157929 C26.1858566,33.157929 33.4531192,30.9739527 34.0508101,30.641213 C34.1453073,30.6042071 36.9210242,29.501713 38.5941155,26.9628876 C38.5941155,26.9628876 39.0927188,26.234216 39.7184264,26.2856479 C39.8323929,26.2856479 41.3793296,26.3820828 40.9396089,28.4148994 C40.9396089,28.4148994 47.9765642,26.2812574 48.3653166,26.0915237 C49.2048696,25.7501598 51.3969832,24.8493166 51.34554,22.3170769 C51.3697579,21.5683343 51.1662011,20.2574467 50.0751304,19.3163047 C50.0133985,19.2548373 45.2334544,15.7643639 45.1899255,15.7351982 C44.7731564,15.3831716 44.555987,14.5897396 45.2388361,13.7503639 C45.2388361,13.7503639 45.7759032,12.9760621 46.5581564,13.0248284 C46.5581564,13.0248284 47.1552142,12.9962899 48.0718529,14.1861243 C48.1942086,14.3070207 48.8724674,15.2015917 49.341946,15.2992811 C49.341946,15.2992811 49.7341806,15.4234704 50.2210708,14.9605828 C51.4105959,13.9375888 52.0287058,13.8958787 52.0287058,13.8958787 C52.0287058,13.8958787 53.7388361,13.4116657 53.7388361,15.3474201 C53.7388361,15.3474201 53.7388361,19.0331154 53.7388361,19.4133669 C53.7388361,20.3043314 54.9193389,23.0272456 57.5983426,22.8972544 C57.5983426,22.8972544 58.5266946,22.8008195 59.4061359,22.5585562 L62.2886965,21.6390533 C62.2886965,21.6390533 65.9068156,20.5599231 67.1735847,18.2519142 C67.1735847,18.2519142 67.773175,17.0907751 68.6396369,17.0899911 C68.6396369,17.0899911 70.1544413,16.8963373 70.0075512,19.1711036 L74.1111359,17.8163107 L74.1111359,7.99139645 C74.1111359,7.99139645 73.9965363,6.83010059 75.3809125,6.83010059 C76.7451862,6.83010059 76.7000745,7.89480473 76.7000745,7.89480473 C76.7000745,7.89480473 76.7000745,27.8008521 76.7000745,28.220932 C76.7000745,28.793426 77.3061546,30.5684556 79.2893296,30.5441509 C79.2893296,30.5441509 84.8588082,30.4966391 84.8588082,25.8011213 C84.8588082,25.4497219 84.8588082,24.010568 84.8588082,24.010568 L83.4421415,24.4944675 L83.4421415,26.1885858 C83.4421415,26.1885858 83.5318901,27.3323195 82.2208007,27.3984911 C82.1020857,27.421855 80.8080912,27.3771657 80.8530447,26.1402899 L80.8530447,1.26415976 C80.8530447,1.26415976 80.7552235,0.102707101 79.582635,0.102707101 C79.582635,0.102707101 78.5075512,0.00627218935 77.6774953,1.45828402 C76.8469646,2.90998225 76.5539758,4.02329586 75.4298231,4.02329586 C75.4298231,4.02329586 74.094041,4.17806213 74.1111359,3.00641716 L74.1111359,1.74852959 L69.9098883,3.10347929 C69.9098883,3.10347929 69.9098883,7.72122189 69.9098883,7.89480473 C69.9098883,9.08134615 69.0082868,14.9886509 67.4176629,15.0088787 C67.3071788,15.0245592 65.8140596,15.2306006 65.7572346,13.7503639 C65.7572346,13.7503639 65.7543855,8.68760947 65.7572346,8.18536391 C65.7960149,7.43207396 65.2078212,5.19086391 63.3143948,5.42638462 L61.6047393,5.76571006 C61.6047393,5.76571006 61.6047393,17.4435858 61.6047393,17.8163107 C61.6047393,18.1888787 61.4708287,19.9635947 59.4552048,20.041997 C59.2717505,20.0711627 57.3055121,19.9937012 57.3055121,18.1060858 L57.3055121,10.2663195 C57.3055121,10.2663195 57.207216,8.86276036 58.6243575,8.76585503 L58.6739013,6.73350888 C58.6739013,6.73350888 54.376257,7.70083728 52.3713966,11.2824142 C52.1322253,11.5375355 51.6344134,11.7664704 51.2966294,11.7664704 C51.0914898,11.7664704 50.1234078,11.7078254 50.0751304,10.7502189 C50.0779795,10.5245769 50.0751304,9.44293787 50.0751304,9.44293787 L42.9913222,11.7664704 C42.9913222,11.7664704 40.2068994,12.6373639 40.2068994,15.4446391 C40.2068994,15.4446391 40.2057914,17.3821183 41.4279236,18.3000533 L46.362514,21.9783787 C46.362514,21.9783787 47.2096648,22.572355 46.8019181,23.5754349 C46.7481006,23.7465089 46.1689292,24.9029438 44.9942831,24.930071 C44.7661918,24.9567278 44.0152793,24.9299142 43.5774581,23.817071 C43.5774581,23.817071 43.1868063,22.3650592 41.9165549,22.8008195 C41.9165549,22.8008195 39.5424115,23.6238876 39.3763687,23.6718698 C39.2103259,23.7196953 37.8128119,23.9621154 37.8128119,22.3170769 C37.8128119,22.3170769 37.8128119,17.298071 37.8128119,16.8963373 C37.8128119,16.4947604 37.3100931,14.1997663 35.3698138,14.2825592 C35.3698138,14.2825592 34.2464525,14.3796213 33.2695065,14.8152249 L33.2695065,17.1867396 C33.2695065,17.1867396 34.5885102,16.9933994 34.5885102,18.6868905 L34.5885102,26.8659822 C34.5885102,26.8659822 34.6497672,28.9100888 32.4877281,28.9469379 C30.6862663,28.9279645 30.3872626,27.2189497 30.3872626,27.0111834 C30.3696927,25.8531805 30.4356983,0.925461538 30.4356983,0.925461538 L26.1371043,2.57128402 L26.1858566,20.4293047 C26.1858566,20.4293047 25.9265829,26.2296686 24.2802421,28.4630385 C23.8001583,29.1071923 22.1351397,29.1071923 21.9841341,27.6887367 L21.9841341,18.4935503 L17.7828864,19.8000473 C17.7828864,19.8000473 17.7828864,22.9028994 17.7828864,23.5265118 C17.7828864,24.1501243 17.1989665,31.5455059 15.0543389,31.4379379 C14.7820857,31.4443669 14.2054469,31.1478491 14.1992737,29.8780444 L14.2263408,20.869142 L10.1126257,22.3170769 C10.1126257,22.3170769 10.0727374,27.2713225 10.0638734,27.5440059 C9.93724395,29.1341627 10.1634358,36.3032751 5.37367784,36.3032751 C5.37367784,36.3032751 4.20140596,36.351571 4.20140596,34.9483254 L4.20140596,14.9124438 C4.20140596,14.9124438 4.33610801,12.6489675 6.1068622,11.8635325 C6.1068622,11.8635325 7.92114525,11.2229852 8.3048324,11.0889172 C8.68851955,10.9546923 10.1616946,11.0889172 10.1616946,12.6861302 L10.1616946,17.7673876 L15.3403631,16.1703314" id="Fill-3" fill="#222222" mask="url(#mask-2)"></path></g><path d="M83.2397121,1.36263736 L83.5200326,1.36263736 C83.7567568,1.36263736 83.8393318,1.28585339 83.8393318,1.12811239 C83.8393318,0.970510502 83.7408665,0.917930171 83.5040065,0.917930171 L83.2397121,0.917930171 L83.2397121,1.36263736 Z M83.2397121,2.3369036 L82.9157952,2.3369036 L82.9157952,0.659062457 L83.5356512,0.659062457 C83.9460818,0.659062457 84.1712617,0.792460704 84.1712617,1.15634998 C84.1712617,1.46362498 83.9894065,1.58492141 83.7764498,1.60523021 L84.1712617,2.3369036 L83.8117615,2.3369036 L83.4449273,1.62136598 L83.2397121,1.62136598 L83.2397121,2.3369036 Z M83.5000679,0.315342885 C82.8764091,0.315342885 82.3869347,0.808735568 82.3869347,1.50006955 C82.3869347,2.19140353 82.8764091,2.68465712 83.5000679,2.68465712 C84.1158495,2.68465712 84.6132011,2.19140353 84.6132011,1.50006955 C84.6132011,0.808735568 84.1158495,0.315342885 83.5000679,0.315342885 Z M82,1.50006955 C82,0.590346362 82.7065055,0 83.5000679,0 C84.2936303,0 85,0.590346362 85,1.50006955 C85,2.41368758 84.2936303,3 83.5000679,3 C82.7065055,3 82,2.41368758 82,1.50006955 L82,1.50006955 Z" id="Fill-5" fill="#222222"></path></g></g></g></g></svg> 