<?xml version="1.0" encoding="UTF-8"?> <!-- Generator: Adobe Illustrator 24.1.2, SVG Export Plug-In . SVG Version: 6.00 Build 0) --> <svg xmlns="http://www.w3.org/2000/svg" xmlns:xlink="http://www.w3.org/1999/xlink" id="Ebene_1" x="0px" y="0px" viewBox="0 0 2487 501" style="enable-background:new 0 0 2487 501;" xml:space="preserve"> <g> <path d="M2077,1c-6.6,11.7-13.2,23.5-19.8,35.2c-0.1,0.1-0.2,0.3-0.3,0.4c-1.8,2.8-3,6.6-5.5,8c-2.6,1.4-6.5,0.6-9.8,0.6 c-224.7,0-449.3,0-674,0c-6.9,0-6.9,0-10.3,6.1c-19.8,36-39.6,72-59.4,108c-17.7,32.2-35.4,64.5-53.1,96.7 c-21,38.2-42.1,76.4-63.1,114.5c-18.4,33.4-36.7,66.8-55.1,100.1c-5.1,9.2-10.1,18.3-15.2,27.5c-0.6,1.1-1,2.4-1.5,3.6 c-32,0-64,0-96,0c8.8-16.2,17.6-32.5,26.4-48.7c9-16.5,18.1-33,27.1-49.4c14.7-26.8,29.4-53.7,44.1-80.6 c10.9-19.9,21.6-39.7,32.5-59.6c12.7-23.2,25.5-46.4,38.2-69.6c17.2-31.4,34.3-62.8,51.5-94.1c9.5-17.4,19-34.7,28.5-52.1 c0.3-0.5,0.4-1.2,0.8-2.2c-1.4-0.2-2.5-0.4-3.6-0.4c-1.2-0.1-2.3,0-3.5,0c-207.5,0-415,0-622.4,0c-1.8,0-3.6,0-6.3,0 C636.2,29.9,644.6,15.5,653,1C1127.7,1,1602.3,1,2077,1z"></path> <path d="M1861,502c6.6-11.4,13.1-22.8,19.7-34.1c11.6-20,23.2-40,34.9-60c11.4-19.6,22.7-39.2,34-58.7c13.9-24,27.9-48,41.9-72.1 c18.7-32.2,37.5-64.4,56.2-96.7c20-34.5,40-69.1,60.1-103.6c13.6-23.5,27.3-46.9,40.9-70.3c1-1.7,1.6-3.6,2.4-5.4 c34.3,0,68.7,0,103,0c-2.8,4.9-5.6,9.8-8.5,14.7c-21.4,36-42.9,72-64.2,108.1c-18.4,31-36.8,62.1-55.1,93.2c-3,5.1-6,10.3-9.3,15.9 c22.6,0,44.7,0,67,0c3.2-5.4,6.3-10.9,9.5-16.3c22.8-38.7,45.6-77.4,68.4-116c13-22.1,26-44.1,39-66.2c6.5-11,12.8-22.2,19.2-33.2 c34,0,68,0,102,0c-0.6,1.5-1.1,3.1-1.9,4.5c-5.7,9.9-11.5,19.9-17.3,29.8c-22.9,39.2-45.9,78.4-68.8,117.6 c-23.1,39.5-46.2,79-69.3,118.5c-18.2,31.2-36.5,62.3-54.7,93.5c-14.6,25-29.3,50-43.9,75c-12.1,20.7-24.1,41.4-36.2,62.1 c-33.3,0-66.7,0-100,0c0.4-1.1,0.6-2.2,1.2-3.2c13.4-23.5,26.9-47.1,40.3-70.6c14.2-24.8,28.4-49.7,42.6-74.5 c14.3-25,28.5-50,42.8-75c0.6-1.1,1.1-2.2,1.8-3.6c-22.6,0-44.7,0-66.9,0c-0.6,0.9-1.1,1.8-1.6,2.6c-13.5,23.5-26.9,47-40.4,70.5 c-14.3,24.9-28.8,49.8-43.1,74.8c-12.7,22-25.4,44.1-38,66.2c-2.4,4.1-4.4,8.5-6.6,12.7C1928.3,502,1894.7,502,1861,502z"></path> <path d="M566,1c-8,13.3-16,26.5-23.8,39.8c-1.9,3.2-3.9,4.6-7.8,4.5c-56.5-0.2-113-0.2-169.5-0.1c-9.3,0-17.5,3.3-24.5,9.7 c-4.3,4-7.9,8.5-10.9,13.6c-15.7,26.3-31.4,52.6-47.1,78.9c-15.6,26.2-31.1,52.4-46.6,78.6c-21.5,36.4-42.9,72.8-64.4,109.2 c-14.4,24.4-28.8,48.7-43.1,73.1c-4.6,7.7-9.1,15.5-13.6,23.3c-2.6,4.3-4.3,9-5.3,13.9c-1.5,7.6,2.3,13.2,10,14.4 c1.1,0.2,2.3,0.2,3.5,0.2c19,0,38,0,57,0c0.7,0,1.3-0.1,2.5-0.2c35.2-57.9,70.5-116,106.3-174.8c-16,0-31.1,0-46.3,0 c0.8-3.9,12.9-27.1,21.2-40.7c49.9,0,100,0,150.1,0c-0.9,3.5-47.4,83.4-74.5,129.2C313.8,416.2,289,459.2,264,502 c-80.3,0-160.7,0-241,0c-1.3-1-2.7-1.9-4-2.9c-8.1-6-14-13.6-16.8-23.4c-0.4-1.2-0.8-2.4-1.2-3.7c0-6,0-12,0-18 c0.3-0.4,0.7-0.8,0.8-1.2c1-6.6,3.2-12.9,6.3-18.8c3.8-7.2,7.9-14.3,11.9-21.3c21.4-37,42.8-74,64.2-111 c22.8-39.3,45.6-78.5,68.3-117.8c12.6-21.7,25.1-43.5,37.7-65.2c12.2-21,24.4-42,36.5-63c6.7-11.7,15.5-21.6,26.2-29.7 C268.8,13.8,286.6,6,306.4,2.8c3.2-0.5,6.4-1.2,9.6-1.8C399.3,1,482.7,1,566,1z"></path> <path d="M364,502c0.8-1.8,1.4-3.7,2.3-5.4c17.1-30.1,34.3-60.1,51.5-90.1c20.6-36.1,41.3-72.2,62-108.3 c19.6-34.4,39.2-68.8,58.8-103.2c15.3-26.9,30.7-53.7,46.1-80.6c5.1-9,13.4-13,23.3-14.4c2.1-0.3,4.3-0.2,6.5-0.2 c54.8,0,109.6,0,164.4,0c6.5,0,13,0.2,19.2,2.3c3.9,1.3,7.8,2.8,11.5,4.7c10.6,5.6,14.7,17.8,13.1,28.4c-2,12.6-7.8,23.6-13.9,34.5 c-9.9,17.5-19.8,35-29.7,52.6c-5.1,9-10.2,17.9-15.1,27c-5.6,10.5-14.5,17.1-25.1,21.8c-7.6,3.3-15.5,5.9-23.8,7.3 c-1.6,0.3-3.3,0.7-4.8,1.4c-3.2,1.5-4.2,4.3-2.6,7.4c0.7,1.3,1.7,2.5,2.7,3.6c5.2,5.7,8,12.4,8.9,20.1c1.3,10.5-1,20.2-5.8,29.3 c-7.1,13.7-14.7,27.2-22.1,40.8c-10.4,19-20.8,37.9-31.3,56.8c-4.4,8-8.8,16-13.2,24c-4.1,7.3-7.1,15-8.5,23.3 c-0.8,4.7-0.3,9.3,1.6,13.7c0.5,1,0.7,2.2,1.1,3.2c-31,0-62,0-93,0c-3.8-5-6-10.6-6.3-17c-0.4-8.8,2-16.7,6.2-24.3 c16.4-30.1,32.7-60.2,49-90.4c8.5-15.8,17-31.6,25.5-47.5c3.9-7.3,8.1-14.6,11.6-22.1c3.7-8.1-0.9-13.3-6.9-14.7 c-1.5-0.3-2.9-0.9-4.4-0.9c-11.6-0.1-23.3,0-35.1,0c-1,1.7-2,3.2-3,4.7c-3.8,6.5-7.6,12.9-11.4,19.4 c-14.9,25.2-29.7,50.5-44.6,75.7c-17.2,29.2-34.5,58.5-51.7,87.8c-5.7,9.7-11.3,19.6-17,29.4C428,502,396,502,364,502z M612.7,243.8c1.6,0.1,2.4,0.3,3.2,0.3c13,0,26,0.1,39-0.1c2.1,0,4.4-0.5,6.2-1.5c3.3-1.9,6.5-4,9.3-6.6 c5.4-4.8,9.6-10.6,13.1-16.9c11.8-21.6,23.4-43.3,35-65c0.8-1.4,1.4-3,1.8-4.6c1.4-4.8-0.3-9.3-4.9-11.1c-3.2-1.3-6.7-2.1-10.1-2.2 c-9.8-0.3-19.6-0.1-29.5-0.1c-0.8,0-1.6,0.1-2.9,0.2C653,171.8,633,207.4,612.7,243.8z"></path> <path d="M1251,502c-2.4-0.7-4.7-1.3-7.1-2c-7.1-2-13.7-5.1-19-10.5c-6.6-6.7-8.7-14.9-7.6-23.8c1.2-10,5-19.2,10.1-27.9 c9.5-16.1,18.8-32.2,28.3-48.2c0.7-1.1,1.5-2.2,2-3.4c0.8-1.6,2-2.2,3.6-2.1c0.8,0,1.7,0,2.5,0c27.7,0,55.3,0,83,0 c1.6,0,3.2,0,5.7,0c-1.3,2.5-2.2,4.3-3.2,6c-9.9,17.7-19.9,35.4-29.8,53.1c-1.6,2.9-3.1,5.8-1.8,9.4c0.8,2.2,1.9,4,4,4.8 c2.8,1.1,5.6,2.4,8.5,2.5c8.7,0.3,17.3,0.1,26,0.2c2.2,0,3.3-1,4.2-2.8c4.6-8.3,9.2-16.6,13.8-24.9c14.8-26.6,29.5-53.2,44.3-79.9 c11.3-20.4,22.5-40.8,33.8-61.2c1-1.9,2.1-3.8,3.3-5.8c-1.8-1-3.6-0.5-5.4-0.5c-22.3,0-44.7,0.1-67-0.1c-9.9-0.1-19.4-2.3-28.2-7.2 c-11.6-6.6-17-18.6-14.6-31.7c1.8-10,5.9-19,11-27.6c18.4-31.3,36.8-62.5,55.3-93.7c7.5-12.7,18.7-20.6,33.1-23.6 c4.2-0.9,8.6-1.2,12.9-1.2c46.8-0.1,93.7,0,140.5-0.1c8,0,15.9,0.6,23.5,3.4c6,2.2,11.6,5.1,15.9,10c5.7,6.5,7.7,14,6.8,22.6 c-1.2,12.1-6.6,22.6-12.7,32.7c-5.5,9.1-11.1,18.2-16.6,27.3c-1.3,2.1-2.6,3.5-5.4,3.5c-29.2-0.1-58.3-0.1-87.5-0.1 c-0.6,0-1.3-0.1-2.2-0.3c0.1-2.2,1.4-3.8,2.3-5.4c7.2-12.7,14.5-25.4,21.8-38.2c0.8-1.4,1.7-2.9,2.4-4.4c2.3-5.4,0.5-10.4-4.9-12.8 c-2.2-1-4.8-1.8-7.2-1.8c-9.3-0.2-18.6-0.1-28.3-0.1c-20.2,35.8-40.3,71.8-60.9,108.5c2.8,0,4.5,0.1,6.3,0.1c22.7,0,45.3,0,68,0 c11.1,0,21.5,2.5,30.7,8.8c7.4,5.1,11.5,12.1,11.9,21.4c0.3,8.2-1.2,16-4.8,23.2c-4.7,9.4-9.7,18.6-14.9,27.7 c-11.7,20.7-23.5,41.4-35.4,62c-9.9,17.2-19.9,34.3-29.9,51.4c-7.4,12.7-14.8,25.3-22.2,37.9c-7.8,13.4-19.6,20.9-34.4,24.1 c-0.6,0.1-1.2,0.5-1.7,0.8C1359.7,502,1305.3,502,1251,502z"></path> <path d="M1581,502c-2.2-0.6-4.4-1.3-6.6-1.9c-5.4-1.3-10.4-3.5-14.9-6.7c-9.7-7-13.5-16.3-12-28.2c1.6-12.8,7.7-23.6,14.1-34.3 c11.8-20.1,23.6-40.2,35.5-60.2c11.2-18.9,22.4-37.8,33.5-56.7c11.8-20.1,23.6-40.2,35.5-60.2c11.2-19.1,22.5-38.1,33.8-57.2 c11.8-20.1,23.6-40.2,35.5-60.2c2.3-3.9,4.6-7.7,6.8-11.6c7.3-12.5,18.4-19.9,32.1-23.5c4-1,8.2-1.3,12.3-1.4 c45.8-0.1,91.7-0.1,137.5,0c11.8,0,22.8,2.6,32.3,9.9c6.6,5,10,11.9,10.6,20.1c0.7,9.1-1.9,17.5-5.7,25.5 c-2.5,5.2-5.5,10.3-8.4,15.3c-5.6,9.4-11.4,18.8-17.3,28.4c-28.2,0-56.5,0-85.3,0c0.5-1.1,0.9-2.1,1.4-3 c8.3-14.6,16.6-29.2,24.9-43.8c3.4-6,1.4-11.6-5.1-14.1c-2.1-0.8-4.5-1.6-6.7-1.6c-12-0.2-24-0.1-36.2-0.1 c-4.8,8.2-9.6,16.4-14.4,24.5c-13.4,23-26.8,46-40.2,69c-13.8,23.7-27.6,47.5-41.4,71.2c-11.9,20.4-23.8,40.8-35.7,61.3 c-13.8,23.7-27.7,47.4-41.5,71.2c-2.3,3.9-4.5,7.8-6.8,11.6c-3.4,5.7-1.4,11.6,5.3,13.9c1.9,0.6,3.9,1.1,5.8,1.1 c12.8,0.1,25.7,0.1,38.5,0.1c0.3,0,0.6-0.2,1.4-0.4c4.2-7.2,8.7-14.6,13-22c9.9-16.8,19.8-33.5,29.6-50.4c1.2-2.1,2.4-3.2,5-3.2 c27.7,0.1,55.3,0.1,83,0.1c0.8,0,1.6,0.2,2.8,0.3c-0.3,1.1-0.4,2.1-0.8,2.9c-14.7,25.5-29.5,51-44.3,76.5 c-2.8,4.8-5.4,9.6-8.3,14.3c-7.7,12.7-19.1,20-33.4,23.2c-0.8,0.2-1.5,0.6-2.2,0.9C1689.7,502,1635.3,502,1581,502z"></path> <path d="M727,502c3.1-5.9,6.1-11.8,9.3-17.5c10.6-19,21.3-38,31.9-57.1c11.8-21.1,23.5-42.1,35.3-63.2 c12.4-22.2,24.8-44.5,37.2-66.7c11.9-21.4,23.9-42.7,35.8-64c11.8-21.2,23.6-42.4,35.5-63.7c10-18,20.1-36,30.1-54.1 c5.7-10.2,14.6-15.1,26-15.9c1.5-0.1,3-0.1,4.5-0.1c57,0,114,0,171,0c1.8,0,3.5,0.1,6.2,0.2c-6.7,12.4-13,24.1-19.4,36.1 c-1.8,0-3.6,0-5.4,0c-29,0-58,0-87,0c-1.2,0-2.3,0.1-3.5,0c-1.7-0.1-2.7,0.6-3.6,2.1c-1.9,3.5-4,6.9-5.9,10.4 c-16.9,30.2-33.9,60.4-50.8,90.6c-0.7,1.3-1.4,2.6-2.2,4.1c1.8,1.3,3.7,0.8,5.4,0.8c28.7,0,57.3,0,86,0c1.8,0,3.6,0,6.4,0 c-8.8,14.1-17,27.3-25.4,40.9c-31.2,0-62.5,0-94.1,0c-31.8,58.2-63.6,116.2-95.7,174.9c7.2,0.4,13.6,0.1,20.1,0.2 c6.7,0,13.3,0,20,0c6.5,0,13,0,19.5,0c6.7,0,13.3,0,20,0c6.5,0,12.9,0,20.2,0c-1.9,3.4-3.3,6.1-4.8,8.8c-6,10.6-12,21.1-18,31.7 c-0.2,0.4-0.3,0.9-0.4,1.4C863,502,795,502,727,502z"></path> <path d="M2488,35c-0.6,1.3-1.3,2.6-1.9,3.9c-4.9,11.5-16.6,17.3-27.3,16c-13.1-1.6-21.4-10.2-23.5-21.8c-2.5-13.6,4-24.7,15.3-30.1 c1.5-0.7,3-1.4,4.4-2c4.7,0,9.3,0,14,0c0.7,0.4,1.3,0.8,2,1.1c5.8,2.5,10.6,6.2,13.7,11.8c1.3,2.3,2.2,4.7,3.3,7.1 C2488,25.7,2488,30.3,2488,35z M2461.9,50.1c1.6-0.2,3.3-0.3,4.9-0.7c9.7-2.7,14.3-9.7,15.9-19c1.1-6.5-2.2-17-10.4-21.7 c-4-2.3-8.1-3.5-12.8-3c-9.6,1.1-18.4,9.1-18.9,21C2440.2,41.9,2452.3,50.6,2461.9,50.1z"></path> <path d="M2452,12.9c4.5,0,8.5-0.2,12.4,0c4.5,0.2,6.9,2.2,8,6.2c1,3.7-0.4,6.4-3.4,8.6c-0.3,0.2-0.5,0.4-0.9,0.7 c4.3,4.1,3.8,9.6,5,14.6c-4.2,2.2-5.7,0.3-6.3-2.7c-0.2-1-0.5-1.9-0.7-2.9c-1.4-6.1-2.1-6.6-9-6.1c-0.1,4-0.2,8-0.3,12.3 c-1.8,0-3.2,0-4.9,0C2452,33.4,2452,23.5,2452,12.9z M2457.2,26.8c2.4-0.4,4.3-0.5,6.2-0.9c2.3-0.6,3.6-2.2,3.5-4.1 c0-1.9-1.3-3.9-3.4-4.3c-2-0.4-4.1-0.1-6.3-0.1C2457.2,20.4,2457.2,23.2,2457.2,26.8z"></path> </g> </svg> 